<svg width="23" height="30" viewBox="0 0 23 30" fill="none" xmlns="http://www.w3.org/2000/svg">
  <path d="M5.69074 21.2481C5.18156 20.7389 5.44699 20.8825 4.21887 20.5537C3.66164 20.4043 3.1718 20.1172 2.72883 19.7733L0.0704283 26.2912C-0.186798 26.9223 0.29367 27.6078 0.97453 27.5821L4.06183 27.4643L6.18527 29.7073C6.65402 30.2018 7.47668 30.0477 7.7339 29.4166L10.7837 21.9389C10.1486 22.2928 9.44367 22.5002 8.71476 22.5002C7.57219 22.5002 6.49875 22.0555 5.69074 21.2481ZM22.4298 26.2912L19.7714 19.7733C19.3284 20.1178 18.8386 20.4043 18.2814 20.5537C17.0468 20.8842 17.3175 20.7401 16.8095 21.2481C16.0015 22.0555 14.9275 22.5002 13.7849 22.5002C13.056 22.5002 12.3511 22.2922 11.7159 21.9389L14.7657 29.4166C15.023 30.0477 15.8462 30.2018 16.3144 29.7073L18.4384 27.4643L21.5257 27.5821C22.2066 27.6078 22.687 26.9217 22.4298 26.2912ZM15.4103 19.9221C16.3056 19.011 16.4081 19.0895 17.6831 18.742C18.497 18.52 19.1333 17.8725 19.3513 17.044C19.7896 15.3799 19.6759 15.5809 20.8718 14.3633C21.4677 13.7569 21.7003 12.8727 21.4823 12.0442C21.0446 10.3813 21.0441 10.6133 21.4823 8.94867C21.7003 8.12015 21.4677 7.23597 20.8718 6.62953C19.6759 5.41195 19.7896 5.61234 19.3513 3.94886C19.1333 3.12035 18.497 2.47288 17.6831 2.25081C16.0495 1.80492 16.2464 1.92152 15.0493 0.703353C14.4534 0.096908 13.5845 -0.140397 12.7706 0.0816736C11.1376 0.526986 11.3655 0.527572 9.72961 0.0816736C8.91574 -0.140397 8.0468 0.0963221 7.4509 0.703353C6.255 1.92093 6.45187 1.80492 4.81769 2.25081C4.00383 2.47288 3.3675 3.12035 3.14953 3.94886C2.71183 5.61234 2.82492 5.41195 1.62902 6.62953C1.03312 7.23597 0.79992 8.12015 1.01848 8.94867C1.45617 10.6104 1.45676 10.3784 1.01848 12.0436C0.800506 12.8721 1.03312 13.7563 1.62902 14.3633C2.82492 15.5809 2.71125 15.3799 3.14953 17.044C3.3675 17.8725 4.00383 18.52 4.81769 18.742C6.12902 19.0994 6.22687 19.0432 7.08996 19.9221C7.86515 20.7114 9.07277 20.8526 10.0044 20.2631C10.377 20.0266 10.8091 19.901 11.2504 19.901C11.6917 19.901 12.1239 20.0266 12.4964 20.2631C13.4275 20.8526 14.6351 20.7114 15.4103 19.9221ZM5.72238 10.3104C5.72238 7.20316 8.19738 4.68421 11.2501 4.68421C14.3028 4.68421 16.7779 7.20316 16.7779 10.3104C16.7779 13.4176 14.3028 15.9366 11.2501 15.9366C8.19738 15.9366 5.72238 13.4176 5.72238 10.3104Z" fill="#4E4D4D" />
</svg>